<?xml version="1.0" encoding="utf-8"?>
<!-- Generator: Adobe Illustrator 26.0.1, SVG Export Plug-In . SVG Version: 6.00 Build 0)  -->
<svg version="1.1" id="Layer_1" xmlns="http://www.w3.org/2000/svg" xmlns:xlink="http://www.w3.org/1999/xlink" x="0px" y="0px"
	 viewBox="0 0 1309.2 2083" style="enable-background:new 0 0 1309.2 2083;" xml:space="preserve">
<style type="text/css">
	.st0{fill:none;stroke:#68AD36;}
	.st1{fill:none;stroke:#68AD36;stroke-width:2;}
	.st2{fill:none;stroke:#68AD36;stroke-width:4;}
	.st3{fill:none;stroke:#68AD36;stroke-width:3;}
	.st4{fill:none;stroke:#AB9364;}
	.st5{fill:none;stroke:#34B288;}
	.st6{fill:none;stroke:#EE7993;}
	.st7{fill:none;stroke:#7798B6;}
	.st8{fill:none;stroke:#68AD36;stroke-width:9;}
	.st9{fill:none;stroke:#68AD36;stroke-width:6;}
	.st10{fill:none;stroke:#68AD36;stroke-width:12;}
	.st11{fill:none;stroke:#68AD36;stroke-width:5;}
	.st12{fill:#68AD36;stroke:#000000;}
	.st13{fill:#EE7993;stroke:#000000;}
	.st14{fill:#00B7DA;stroke:#000000;}
	.st15{font-family:'ArialMT';}
	.st16{font-size:12px;}
	.st17{fill:#FFFFFF;}
	.st18{fill:none;}
	.st19{font-family:'MyriadPro-Regular';}
	.st20{font-size:36px;}
	.st21{stroke:#000000;stroke-width:5;stroke-miterlimit:10;}
</style>
<g id="edges">
	<path class="st0" d="M982.6,802.7c69.4,137-32,446.6-169,516"/>
	<path class="st1" d="M801.5,986.3c68.9,64.1,76.1,263.5,12.1,332.4"/>
	<path class="st2" d="M656,701.2c155,92,249.6,462.5,157.6,617.5"/>
	<path class="st0" d="M812,237.3c216.6,216,217.6,864.8,1.6,1081.4"/>
	<path class="st3" d="M1097.9,689.3c69,182.8-101.6,560.4-284.3,629.4"/>
	<path class="st0" d="M909.5,552.9c134,172.4,76.4,631.9-96,765.8"/>
	<path class="st0" d="M970.2,628.3C1077,797.7,983,1212,813.6,1318.7"/>
	<path class="st0" d="M1094.7,471.7c113.2,225.6-55.5,733.8-281.1,847"/>
	<path class="st0" d="M878.3,1768.6c-102.9-77-141.8-346.9-64.8-449.9"/>
	<path class="st4" d="M878.3,1768.6c-26.8,70.1-172.1,135.1-242.1,108.3"/>
	<path class="st5" d="M221.2,1236.9c105.9,97.8,118.1,403.2,20.3,509.1"/>
	<path class="st0" d="M916.3,1794.9c-12.9,2.3-35.7-13.5-38-26.3"/>
	<path class="st0" d="M813.6,1318.7c-1,154-233.5,383.6-387.5,382.6"/>
	<path class="st6" d="M386.4,2068.6c-26.2,14.1-86.7-4.1-100.8-30.3"/>
	<path class="st7" d="M241.6,1746.1c93.5,35.5,180.4,229.1,144.8,322.5"/>
	<path class="st4" d="M369.3,1953.8c26.4,19.5,36.7,88.4,17.2,114.8"/>
	<path class="st7" d="M241.6,1746.1c67.2,49.6,93.6,225,44,292.2"/>
	<path class="st4" d="M369.3,1953.8c0.2,33.6-50,84.3-83.7,84.5"/>
	<path class="st5" d="M369.3,1953.8c-67.1-16-143.7-140.7-127.7-207.7"/>
	<path class="st0" d="M17.4,1692.8c6.3-9.1,29.4-13.2,38.5-6.9"/>
	<path class="st7" d="M241.6,1746.1c105.1-52.8,341.9,25.7,394.6,130.8"/>
	<path class="st5" d="M55.9,1685.9c49.2-25.1,160.5,11,185.6,60.2"/>
	<path class="st5" d="M148.2,1568.3c54.2,16.9,110.3,123.6,93.4,177.8"/>
	<path class="st4" d="M369.3,1953.8c38-68.8,198.2-114.9,266.9-76.9"/>
	<path class="st5" d="M426.1,1701.3c-27.9,45.8-138.6,72.7-184.5,44.7"/>
	<path class="st0" d="M426.1,1701.3c39.1,61.9,5.1,213.4-56.8,252.5"/>
	<path class="st0" d="M426.1,1701.3c-121.2,23.2-337.8-124-361-245.2"/>
	<path class="st4" d="M426.1,1701.3c77.1-6.9,203.2,98.4,210.1,175.6"/>
	<path class="st0" d="M760.6,1842.5c8.8-38.3,79.4-82.6,117.7-73.9"/>
	<path class="st4" d="M760.6,1842.5c-18,31.8-92.6,52.4-124.4,34.4"/>
	<path class="st4" d="M479.3,1883.9c18.4,55.5-37.4,166.3-92.9,184.7"/>
	<path class="st5" d="M479.3,1883.9c-75.1,20-217.7-62.7-237.7-137.8"/>
	<path class="st0" d="M10.3,1411.2c20-2,52.9,24.9,54.9,44.9"/>
	<path class="st0" d="M426.1,1701.3c47.2,25.9,79.1,135.4,53.2,182.6"/>
	<path class="st0" d="M55.9,1685.9c-5.1-42,50.3-112.6,92.2-117.6"/>
	<path class="st0" d="M426.1,1701.3c-82.2,29-248.9-50.9-277.9-133"/>
	<path class="st0" d="M129,1668.2c-11.1,18.1-54.9,28.7-73,17.7"/>
	<path class="st0" d="M129,1668.2c-16.1-23.8-4.6-83.8,19.2-100"/>
	<path class="st0" d="M65.1,1456.1c39,5.8,88.9,73.1,83.1,112.1"/>
	<path class="st5" d="M129,1668.2c38.1-7,105.7,39.7,112.6,77.8"/>
	<path class="st4" d="M479.3,1883.9c30-32.8,124.1-37,156.9-7"/>
	<path class="st3" d="M1097.9,689.3c64.6,89.9,26.7,321.6-63.1,386.2"/>
	<path class="st0" d="M1293.3,827.2c-2.1,101.4-157.2,250.3-258.6,248.3"/>
	<path class="st0" d="M1237.5,667.5c41,122.1-80.6,366.9-202.7,407.9"/>
	<path class="st0" d="M1136,871.6c20.5,61-40.2,183.3-101.3,203.8"/>
	<path class="st0" d="M1172,1027.9c-17.9,37-100.2,65.5-137.2,47.6"/>
	<path class="st8" d="M1097.9,689.3c44.1,28.8,67,138.3,38.1,182.3"/>
	<path class="st3" d="M1097.9,689.3c82.5,52.9,127,256,74,338.6"/>
	<path class="st0" d="M1293.3,827.2c15.9,64.4-57,184.8-121.4,200.7"/>
	<path class="st0" d="M1136,871.6c38.4,24.1,60,117.8,35.9,156.2"/>
	<path class="st0" d="M943.6,10.3c19.1,71.7-59.9,207.9-131.7,227"/>
	<path class="st8" d="M1097.9,689.3c23.6-32.3,107.3-45.3,139.6-21.8"/>
	<path class="st3" d="M1136,871.6c-20.5-61.1,40.3-183.6,101.5-204.1"/>
	<path class="st1" d="M1293.3,827.2c-43.1-20.8-76.6-116.6-55.8-159.7"/>
	<path class="st0" d="M1172,1027.9c-59-85.2-19.6-301.4,65.5-360.3"/>
	<path class="st9" d="M982.6,802.7c0.5,72.9-108.2,183.1-181.1,183.6"/>
	<path class="st8" d="M1097.9,689.3C1098,808,920.2,986.2,801.5,986.3"/>
	<path class="st2" d="M1237.5,667.5c-23.4,151-285,342.3-436,318.8"/>
	<path class="st3" d="M1136,871.6c-44,89.8-244.7,158.7-334.5,114.7"/>
	<path class="st1" d="M1293.3,827.2c-66.5,130.2-361.6,225.7-491.8,159.1"/>
	<path class="st0" d="M1034.8,1075.5c-64.5,28.8-204.4-24.7-233.3-89.1"/>
	<path class="st0" d="M1172,1027.9c-82.4,65.8-304.7,40.9-370.4-41.5"/>
	<path class="st10" d="M1097.9,689.3c-0.4,45.8-69.5,113.8-115.3,113.5"/>
	<path class="st11" d="M1237.5,667.5c-23.9,78-176.9,159.2-254.9,135.2"/>
	<path class="st3" d="M1136,871.6c-44.5,16.9-136.5-24.4-153.4-68.9"/>
	<path class="st1" d="M1293.3,827.2c-67,57.3-253.5,42.6-310.7-24.5"/>
	<path class="st0" d="M1034.8,1075.5c-65-44.1-96.3-207.8-52.2-272.7"/>
	<path class="st0" d="M1172,1027.9c-82.9-7.2-196.5-142.2-189.3-225.1"/>
	<path class="st9" d="M1097.9,689.3c66.7-11.5,183.9,71.3,195.4,137.9"/>
	<path class="st1" d="M1136,871.6c22.6-40.3,117-67,157.3-44.4"/>
</g>
<g id="nodes">
	<circle class="st12" cx="982.6" cy="802.7" r="15"/>
	
		<ellipse transform="matrix(0.1602 -0.9871 0.9871 0.1602 -300.4846 1619.5051)" class="st12" cx="801.5" cy="986.3" rx="15.8" ry="15.8"/>
	<circle class="st12" cx="656" cy="701.2" r="10"/>
	
		<ellipse transform="matrix(0.1602 -0.9871 0.9871 0.1602 447.6719 1000.7518)" class="st12" cx="812" cy="237.3" rx="10.8" ry="10.8"/>
	<circle class="st12" cx="1097.9" cy="689.3" r="10"/>
	<circle class="st12" cx="1293.3" cy="827.2" r="11.7"/>
	<circle class="st12" cx="1237.5" cy="667.5" r="13.3"/>
	<circle class="st12" cx="1034.8" cy="1075.5" r="14.2"/>
	
		<ellipse transform="matrix(0.9985 -5.530041e-02 5.530041e-02 0.9985 -46.463 64.1568)" class="st12" cx="1136" cy="871.6" rx="10.8" ry="10.8"/>
	<circle class="st12" cx="1172" cy="1027.9" r="12.5"/>
	<circle class="st12" cx="970.2" cy="628.3" r="10"/>
	<circle class="st12" cx="909.5" cy="552.9" r="10"/>
	<circle class="st12" cx="1094.7" cy="471.7" r="10"/>
	<circle class="st12" cx="943.6" cy="10.3" r="10"/>
	<circle class="st13" cx="636.2" cy="1876.9" r="15"/>
	<circle class="st12" cx="17.4" cy="1692.8" r="10"/>
	<circle class="st12" cx="878.3" cy="1768.6" r="11.7"/>
	<circle class="st12" cx="65.1" cy="1456.1" r="11.7"/>
	<circle class="st12" cx="760.6" cy="1842.5" r="10"/>
	<circle class="st12" cx="426.1" cy="1701.3" r="10.8"/>
	<circle class="st12" cx="129" cy="1668.2" r="10"/>
	<circle class="st12" cx="10.3" cy="1411.2" r="10"/>
	<circle class="st12" cx="369.3" cy="1953.8" r="10.8"/>
	<circle class="st12" cx="148.2" cy="1568.3" r="13.3"/>
	<circle class="st12" cx="479.3" cy="1883.9" r="10.8"/>
	<circle class="st13" cx="386.4" cy="2068.6" r="13.3"/>
	
		<ellipse transform="matrix(0.1602 -0.9871 0.9871 0.1602 -1617.1399 1471.0664)" class="st12" cx="55.9" cy="1685.9" rx="11.7" ry="11.7"/>
	<circle class="st12" cx="813.6" cy="1318.7" r="17.5"/>
	<circle class="st12" cx="916.3" cy="1794.9" r="10"/>
	<circle class="st12" cx="221.2" cy="1236.9" r="10"/>
	<circle class="st14" cx="241.6" cy="1746.1" r="15.8"/>
	<circle class="st13" cx="285.6" cy="2038.3" r="12.5"/>
</g>
<g id="node-labels">
	<text transform="matrix(1 0 0 1 934.3511 804.9246)" class="st15 st16">Leonardo da Vinci</text>
	<text transform="matrix(1 0 0 1 766.1523 989.1201)" class="st15 st16">Michelangelo</text>
	<text transform="matrix(1 0 0 1 633.6378 703.983)" class="st15 st16">Raphael</text>
	<text transform="matrix(1 0 0 1 764.2562 240.067)" class="st15 st16">Andrea Mantegna</text>
	<text transform="matrix(1 0 0 1 1081.8994 691.5011)" class="st15 st16">Giotto</text>
	<text transform="matrix(1 0 0 1 1267.9775 829.382)" class="st15 st16">Donatello</text>
	<text transform="matrix(1 0 0 1 1178.4523 669.7025)" class="st15 st16">Andrea del Verrocchio</text>
	<text transform="matrix(1 0 0 1 975.398 1077.6904)" class="st15 st16">Domenico Ghirlandaio</text>
	<text transform="matrix(1 0 0 1 1091.6724 873.8494)" class="st15 st16">Lorenzo Ghiberti</text>
	<text transform="matrix(1 0 0 1 1126.9288 1030.0713)" class="st15 st16">Benozzo Gozzoli</text>
	<text transform="matrix(1 0 0 1 926.2241 631.1467)" class="st15 st16">Girolamo Genga</text>
	<text transform="matrix(1 0 0 1 861.4887 555.0537)" class="st15 st16">Piero del Pollaiolo</text>
	<text transform="matrix(1 0 0 1 1061.2979 473.9352)" class="st15 st16">Jean Cousin</text>
	<text transform="matrix(1 0 0 1 877.5807 13.0186)" class="st15 st16">Nikolaos Philanthropinos</text>
	<text transform="matrix(1 0 0 1 573.5133 1879.6974)" class="st15 st16">Njideka Akunyili Crosby</text>
	<text transform="matrix(1 0 0 1 -28.1445 1694.9532)" class="st15 st16">Vivian E. Browne</text>
	<text transform="matrix(1 0 0 1 823.76 1770.8165)" class="st15 st16">Louise Clement-Hoff</text>
	<text transform="matrix(1 0 0 1 21.4243 1458.3523)" class="st15 st16">Candida Alvarez</text>
	<text transform="matrix(1 0 0 1 700.7971 1845.2356)" class="st15 st16">Laura Wheeler Waring</text>
	<text transform="matrix(1 0 0 1 375.7054 1703.4902)" class="st15 st16">Howardena Pindell</text>
	<text transform="matrix(1 0 0 1 94.2952 1670.4054)" class="st15 st16">Annette Fortt</text>
	<text transform="matrix(1 0 0 1 -30.1118 1414.0137)" class="st15 st16">Kara Shepherd</text>
	<text transform="matrix(1 0 0 1 327.2559 1956.5825)" class="st15 st16">Fatimah Tuggar</text>
	<text transform="matrix(1 0 0 1 97.4947 1570.4478)" class="st15 st16">Iona Rozeal Brown</text>
	<text transform="matrix(1 0 0 1 431.9495 1886.1152)" class="st15 st16">Suzanne Jackson</text>
	<text transform="matrix(1 0 0 1 352.4238 2070.7712)" class="st15 st16">Leslie Hewitt</text>
	<text transform="matrix(1 0 0 1 21.261 1688.0757)" class="st15 st16">Louise Parks</text>
	<text transform="matrix(1 0 0 1 752.1951 1320.9412)" class="st15 st16">Barbara Chase-Riboud</text>
	<text transform="matrix(1 0 0 1 849.6603 1797.1249)" class="st15 st16">Meta Vaux Warrick Fuller</text>
	<text transform="matrix(1 0 0 1 182.5648 1239.0957)" class="st15 st16">Deborah Willis</text>
	<text transform="matrix(1 0 0 1 191.346 1748.2399)" class="st15 st16">Mickalene Thomas</text>
	<text transform="matrix(1 0 0 1 249.2346 2040.4884)" class="st15 st16">Hannah Price</text>
</g>
<rect x="90.2" y="432.1" class="st17" width="429.9" height="519.3"/>
<rect x="90.2" y="432.1" class="st18" width="131.1" height="42"/>
<text transform="matrix(1 0 0 1 90.1738 457.6318)" class="st19 st20">Legend</text>
<rect x="108.6" y="481.7" class="st12" width="37.5" height="37.5"/>
<rect x="108.6" y="534.1" class="st13" width="37.5" height="37.5"/>
<rect x="108.6" y="586.6" class="st14" width="37.5" height="37.5"/>
<text transform="matrix(1 0 0 1 153.5083 499.6826)" class="st15 st16">Ancestor</text>
<text transform="matrix(1 0 0 1 155.7083 555.0537)" class="st15 st16">Descendant</text>
<text transform="matrix(1 0 0 1 156.6321 605.2938)" class="st15 st16">Origin</text>
<line class="st21" x1="62.5" y1="1152.5" x2="1237.5" y2="1152.5"/>
<rect x="202.9" y="1114.8" class="st18" width="248.7" height="25.8"/>
<text transform="matrix(1 0 0 1 202.9057 1123.3723)" class="st15 st16">Renaissance Artists</text>
<rect x="327.3" y="1175" class="st18" width="248.7" height="25.8"/>
<text transform="matrix(1 0 0 1 327.256 1183.6113)" class="st15 st16">African American Artists</text>
</svg>
